<?xml version="1.0" standalone="no"?>
<!DOCTYPE svg PUBLIC "-//W3C//DTD SVG 20010904//EN"
 "http://www.w3.org/TR/2001/REC-SVG-20010904/DTD/svg10.dtd">
<svg version="1.0" xmlns="http://www.w3.org/2000/svg"
 width="47.000000pt" height="51.000000pt" viewBox="0 0 47.000000 51.000000"
 preserveAspectRatio="xMidYMid meet">
<metadata>
Created by potrace 1.10, written by Peter Selinger 2001-2011
</metadata>
<g transform="translate(0.000000,51.000000) scale(0.100000,-0.100000)"
fill="#000000" stroke="none">
<path d="M107 467 c-16 -24 -41 -54 -57 -65 -39 -29 -50 -75 -50 -214 0 -104
2 -118 18 -127 31 -17 254 -51 297 -45 64 7 105 24 121 49 14 22 13 38 -7 175
-25 166 -34 187 -98 220 -21 10 -43 26 -50 34 -10 12 -32 16 -80 16 l-67 0
-27 -43z m160 -11 c22 -24 23 -30 23 -217 l0 -191 -22 5 c-13 3 -72 13 -133
23 -60 9 -111 18 -113 19 -2 2 5 62 15 135 16 129 18 134 44 144 15 5 30 20
33 32 3 12 18 37 33 54 23 28 31 31 62 26 19 -3 45 -17 58 -30z m78 -46 c19 0
22 -13 43 -162 12 -90 22 -166 22 -169 0 -4 -18 -9 -39 -13 -22 -3 -46 -9 -55
-12 -14 -5 -16 15 -16 187 0 150 3 190 12 181 7 -7 21 -12 33 -12z"/>
<path d="M150 438 c-24 -40 -25 -52 -4 -44 9 3 18 6 20 6 2 0 4 8 4 17 0 9 7
25 17 35 15 17 15 18 -1 18 -9 0 -25 -15 -36 -32z"/>
<path d="M203 448 c-21 -27 -24 -38 -11 -38 26 0 41 17 31 34 -8 14 -11 15
-20 4z"/>
<path d="M136 329 c-35 -28 -36 -80 -1 -107 14 -11 25 -27 25 -36 0 -18 -30
-22 -47 -5 -7 7 -12 4 -16 -10 -11 -45 72 -62 105 -21 28 35 23 65 -18 98 -40
33 -38 52 7 52 16 0 29 4 29 9 0 5 3 16 6 25 9 25 -57 21 -90 -5z"/>
</g>
</svg>
