<?xml version="1.0" standalone="no"?>
<!DOCTYPE svg PUBLIC "-//W3C//DTD SVG 20010904//EN"
 "http://www.w3.org/TR/2001/REC-SVG-20010904/DTD/svg10.dtd">
<svg version="1.0" xmlns="http://www.w3.org/2000/svg"
 width="135.000000pt" height="45.000000pt" viewBox="0 0 135.000000 45.000000"
 preserveAspectRatio="xMidYMid meet">
<metadata>
Created by potrace 1.10, written by Peter Selinger 2001-2011
</metadata>
<g transform="translate(0.000000,45.000000) scale(0.100000,-0.100000)"
fill="#000000" stroke="none">
<path d="M127 402 c-8 -9 -20 -29 -26 -45 -6 -15 -17 -27 -25 -27 -18 0 -27
-13 -32 -48 -16 -122 -24 -185 -22 -187 2 -1 41 -7 88 -14 47 -7 95 -15 108
-18 l22 -5 0 162 c0 157 -1 161 -20 155 -12 -4 -20 -2 -20 5 0 6 5 8 10 5 6
-3 10 -1 10 5 0 11 -41 30 -64 30 -7 0 -20 -8 -29 -18z m22 -27 c-20 -33 -39
-46 -39 -26 0 12 40 61 50 61 5 0 0 -16 -11 -35z m41 1 c0 -14 -29 -31 -38
-21 -6 6 18 35 29 35 5 0 9 -6 9 -14z m0 -75 c0 -24 -13 -38 -30 -34 -31 8
-35 -18 -7 -39 37 -27 38 -83 3 -99 -34 -16 -76 -4 -76 21 0 16 5 19 24 14 34
-8 39 9 11 36 -32 30 -32 54 0 85 23 24 75 35 75 16z"/>
<path d="M250 216 c0 -145 1 -157 18 -152 9 3 30 8 45 12 24 5 27 10 23 33 -3
14 -13 77 -22 139 -12 81 -20 112 -29 108 -7 -2 -18 1 -24 7 -8 8 -11 -30 -11
-147z"/>
<path d="M990 305 c0 -8 -8 -15 -17 -16 -10 0 -13 -3 -6 -5 9 -4 10 -24 6 -70
-5 -55 -4 -64 11 -64 9 0 16 5 16 10 0 6 -5 10 -11 10 -7 0 -9 13 -5 38 11 59
16 70 34 75 15 4 15 5 -2 6 -12 1 -16 6 -12 16 3 8 1 15 -4 15 -6 0 -10 -7
-10 -15z"/>
<path d="M509 285 c-47 -26 -64 -105 -27 -129 13 -8 22 -6 37 8 21 19 21 19
22 0 1 -10 8 12 16 50 12 57 12 70 1 77 -17 11 -18 11 -49 -6z m41 -25 c0 -11
-7 -36 -14 -55 -26 -61 -78 -39 -55 23 18 48 69 72 69 32z"/>
<path d="M630 283 c-13 -9 -20 -11 -16 -5 4 7 3 12 -2 12 -5 0 -14 -33 -21
-72 -7 -40 -15 -83 -18 -95 -3 -13 0 -23 6 -23 6 0 11 11 11 25 0 20 5 25 25
25 40 0 75 42 75 89 0 51 -25 69 -60 44z m48 -30 c5 -37 -25 -83 -54 -83 -25
0 -26 2 -19 38 12 64 66 98 73 45z"/>
<path d="M901 284 c-27 -19 -26 -32 0 -60 27 -29 19 -54 -18 -54 -20 0 -24 -3
-16 -11 17 -17 61 -2 68 22 5 14 0 28 -15 44 -26 28 -21 52 12 57 18 2 20 5 7
10 -9 3 -26 0 -38 -8z"/>
<path d="M1061 283 c-46 -38 -43 -124 5 -131 25 -4 60 34 69 75 5 25 2 36 -14
52 -26 26 -33 26 -60 4z m57 -36 c5 -39 -23 -79 -51 -75 -18 2 -22 9 -21 40 1
45 20 70 48 66 15 -2 22 -12 24 -31z"/>
<path d="M1200 290 c-8 -5 -17 -7 -21 -4 -9 5 -32 -100 -27 -124 3 -9 10 9 17
40 8 38 20 63 34 73 23 16 20 30 -3 15z"/>
<path d="M1245 276 c-48 -48 -42 -126 9 -126 35 0 42 18 9 22 -36 4 -48 48
-13 48 54 0 81 48 40 70 -16 9 -25 6 -45 -14z m49 -4 c8 -14 -8 -30 -38 -38
-30 -7 -30 -1 -3 34 11 14 33 16 41 4z"/>
<path d="M712 209 c-7 -44 -15 -86 -18 -94 -4 -8 -1 -15 5 -15 6 0 11 11 11
25 0 21 5 25 29 25 32 0 67 35 78 78 9 38 -9 57 -54 58 l-39 2 -12 -79z m86
34 c2 -24 -3 -39 -22 -58 -34 -34 -59 -24 -51 19 16 75 67 102 73 39z"/>
</g>
</svg>
