<?xml version="1.0" standalone="no"?>
<!DOCTYPE svg PUBLIC "-//W3C//DTD SVG 20010904//EN"
 "http://www.w3.org/TR/2001/REC-SVG-20010904/DTD/svg10.dtd">
<svg version="1.0" xmlns="http://www.w3.org/2000/svg"
 width="81.000000pt" height="16.000000pt" viewBox="0 0 81.000000 16.000000"
 preserveAspectRatio="xMidYMid meet">
<metadata>
Created by potrace 1.10, written by Peter Selinger 2001-2011
</metadata>
<g transform="translate(0.000000,16.000000) scale(0.100000,-0.100000)"
fill="#000000" stroke="none">
<path d="M62 135 c-7 -15 -20 -25 -32 -25 -24 0 -26 -13 -5 -30 9 -8 13 -21 9
-36 -7 -26 13 -33 34 -12 9 9 15 9 24 0 21 -21 41 -14 34 12 -4 15 0 28 9 36
21 17 19 30 -5 30 -12 0 -25 10 -32 25 -6 14 -14 25 -18 25 -4 0 -12 -11 -18
-25z"/>
<path d="M222 135 c-7 -15 -20 -25 -32 -25 -24 0 -26 -13 -5 -30 9 -8 13 -21
9 -36 -7 -26 13 -33 34 -12 9 9 15 9 24 0 21 -21 41 -14 34 12 -4 15 0 28 9
36 21 17 19 30 -5 30 -12 0 -25 10 -32 25 -6 14 -14 25 -18 25 -4 0 -12 -11
-18 -25z"/>
<path d="M382 135 c-7 -15 -20 -25 -32 -25 -24 0 -26 -13 -5 -30 9 -8 13 -21
9 -36 -7 -26 13 -33 34 -12 9 9 15 9 24 0 21 -21 41 -14 34 12 -4 15 0 28 9
36 21 17 19 30 -5 30 -12 0 -25 10 -32 25 -6 14 -14 25 -18 25 -4 0 -12 -11
-18 -25z"/>
<path d="M542 135 c-7 -15 -20 -25 -32 -25 -24 0 -26 -13 -5 -30 9 -8 13 -21
9 -36 -7 -26 13 -33 34 -12 9 9 15 9 24 0 21 -21 41 -14 34 12 -4 15 0 28 9
36 21 17 19 30 -5 30 -12 0 -25 10 -32 25 -6 14 -14 25 -18 25 -4 0 -12 -11
-18 -25z"/>
<path d="M705 140 c-4 -13 -15 -20 -30 -20 -32 0 -39 -14 -16 -34 12 -11 16
-25 13 -43 -4 -23 -2 -25 14 -18 24 10 44 10 68 0 16 -7 18 -5 14 18 -3 18 1
32 13 43 23 20 16 34 -16 34 -15 0 -26 7 -30 20 -3 11 -10 20 -15 20 -5 0 -12
-9 -15 -20z m35 -30 c10 -10 15 -22 10 -25 -5 -3 -7 -11 -4 -19 3 -9 -5 -13
-26 -13 -21 0 -29 4 -26 13 3 8 1 16 -4 19 -5 3 -2 14 8 25 22 23 19 23 42 0z"/>
</g>
</svg>
